<svg width="35" height="35" fill="none" xmlns="http://www.w3.org/2000/svg"><path d="M15.9359 1.335c-.7711.7255-3.8773 3.645-6.8988 6.4863-3.0242 2.8383-5.92 5.5634-6.4394 6.0509-.5196.4876-1.2579 1.1812-1.6407 1.5382-.3828.3598-.7547.711-.8257.7835L0 16.3245l.9023 1.0738c.495.5892.9188 1.0709.938 1.0709.0218-.0029 1.6488-1.512 3.6175-3.3549C15.7883 5.4444 17.4562 3.8889 17.4754 3.8947c.0109.0058 1.2851 1.1986 2.8328 2.6525 1.5449 1.454 5.0367 4.7334 7.7547 7.2902s4.9547 4.6492 4.9683 4.6492c.0137 0 .0329-.0145.0411-.029.0136-.0232.03-.0203.0574.0029.0519.0435-.0274.1306.9269-1.0186.4184-.5021.8012-.9606.8532-1.0187l.0929-.1045-2.2914-2.1446a8315.1696 8315.1696 0 0 0-6.5843-6.1642 8998.6824 8998.6824 0 0 0-6.4176-6.0074L17.5875.0145H17.3414L15.9359 1.335Z" fill="#41522E"/><path d="M15.6051 8.007c-.9953.9346-3.7461 3.5204-6.1113 5.7434l-4.2985 4.0427.0055 8.335.0082 8.335.0601.119c.0328.0668.1121.1683.175.2235.227.2089-.0656.1944 4.2684.1944h3.9047l.0055-3.6944c.0082-3.6741.0082-3.6916.0656-3.8222.0711-.1683.2078-.3134.3664-.3888.123-.061.1422-.061 3.3469-.0697 3.5656-.0087 3.4125-.0145 3.6148.1741.1422.1335.2215.2815.2543.4731.0219.1161.0301 1.3176.0301 3.7496V35l4.0578-.0058 4.0605-.0087.0821-.0841c.0465-.0465.123-.1829.1722-.3048l.0903-.2205.0054-8.3002.0055-8.3002-6.125-5.7317C20.177 8.7936 17.5 6.3093 17.4699 6.3093c-.0355-.0029-.6754.5804-1.8648 1.6978Z" fill="#41522E"/></svg>