<svg width="17" height="17" fill="currentColor" xmlns="http://www.w3.org/2000/svg"><path d="M7.6598 2.0155a8075.1038 8075.1038 0 0 0-1.2611 3.0167c-.2262.5434-.4172.9938-.4172.9938s-.4325.0369-.9578.0767c-.5239.0399-1.4803.1123-2.125.161a818.931 818.931 0 0 1-1.9591.1491c-.4326.0325-.8216.0635-.8638.068L0 6.4895l.0688.0694c.0393.037.472.443.9607.9022.4901.4592 1.132 1.0602 1.4269 1.3363 1.7794 1.6685 2.191 2.0539 2.2078 2.0672.0238.0192.1039-.3366-.7612 3.3445a753.0318 753.0318 0 0 0-.6503 2.7907s1.2205-.7368 2.7078-1.6493c1.4859-.9125 2.712-1.6567 2.7246-1.6538.0112.003.559.3573 1.2148.7856.6573.4296 1.6362 1.069 2.1769 1.4219.5407.3529 1.139.7442 1.33.8682.1896.1256.3554.2274.3554.2274s.0056-.0251 0-.0561c-.0085-.0502-.5773-2.8011-1.0899-5.2684-.1222-.5936-.2233-1.0898-.2233-1.103 0-.0192.9115-.8314 4.2091-3.7535.3624-.3204.3666-.3249.323-.3352-.0252-.006-1.4198-.1536-3.0996-.3293-1.6797-.1757-3.0673-.3248-3.0841-.3322-.0211-.0089-.0871-.164-.2795-.6586-.1376-.3573-.5786-1.4958-.979-2.5308C9.1388 1.5977 8.747.5833 8.6683.381 8.5896.1772 8.5222.0074 8.5166 0c-.0043-.006-.3905.9007-.8568 2.0155Z" fill="#6C6845"/><path d="M7.6598 2.0155a8075.1038 8075.1038 0 0 0-1.2611 3.0167c-.2262.5434-.4172.9938-.4172.9938s-.4325.0369-.9578.0767c-.5239.0399-1.4803.1123-2.125.161a818.931 818.931 0 0 1-1.9591.1491c-.4326.0325-.8216.0635-.8638.068L0 6.4895l.0688.0694c.0393.037.472.443.9607.9022.4901.4592 1.132 1.0602 1.4269 1.3363 1.7794 1.6685 2.191 2.0539 2.2078 2.0672.0238.0192.1039-.3366-.7612 3.3445a753.0318 753.0318 0 0 0-.6503 2.7907s1.2205-.7368 2.7078-1.6493c1.4859-.9125 2.712-1.6567 2.7246-1.6538.0112.003.559.3573 1.2148.7856.6573.4296 1.6362 1.069 2.1769 1.4219.5407.3529 1.139.7442 1.33.8682.1896.1256.3554.2274.3554.2274s.0056-.0251 0-.0561c-.0085-.0502-.5773-2.8011-1.0899-5.2684-.1222-.5936-.2233-1.0898-.2233-1.103 0-.0192.9115-.8314 4.2091-3.7535.3624-.3204.3666-.3249.323-.3352-.0252-.006-1.4198-.1536-3.0996-.3293-1.6797-.1757-3.0673-.3248-3.0841-.3322-.0211-.0089-.0871-.164-.2795-.6586-.1376-.3573-.5786-1.4958-.979-2.5308C9.1388 1.5977 8.747.5833 8.6683.381 8.5896.1772 8.5222.0074 8.5166 0c-.0043-.006-.3905.9007-.8568 2.0155Z" fill="currentColor" /></svg>
