<svg color="#ffffff" width="23" height="20" fill="currentColor" xmlns="http://www.w3.org/2000/svg"><path d="M20.3807 2.5913a5.5332 5.5332 0 0 0-1.7929-1.1777A5.6102 5.6102 0 0 0 16.4727 1a5.6095 5.6095 0 0 0-2.1151.4136 5.5336 5.5336 0 0 0-1.793 1.1777l-1.0649 1.0465-1.0649-1.0465c-1.0365-1.0185-2.4422-1.5908-3.908-1.5908-1.4658 0-2.8716.5723-3.908 1.5908C1.5823 3.61 1 4.9913 1 6.432c0 1.4405.5823 2.822 1.6188 3.8405l1.0649 1.0465L11.4997 19l7.8161-7.6811 1.0649-1.0465a5.4235 5.4235 0 0 0 1.1984-1.762A5.3478 5.3478 0 0 0 22 6.432c0-.7133-.143-1.4196-.4209-2.0786a5.4235 5.4235 0 0 0-1.1984-1.762Z" fill="currentColor" stroke="#C4C4C4" stroke-linecap="round" stroke-linejoin="round"/></svg>
